<svg class="svg-icon" style="width: 1em; height: 1em;vertical-align: middle;fill: currentColor;overflow: hidden;"
    viewBox="0 0 1024 1024" version="1.1" xmlns="http://www.w3.org/2000/svg">
    <path
        d="M778.666667 441.6c-14.933333 0-29.866667-4.266667-40.533334-12.8l-204.8-149.333333c-23.466667-17.066667-34.133333-44.8-27.733333-70.4 6.4-32 23.466667-74.666667 66.133333-98.133334 36.266667-19.2 81.066667-17.066667 136.533334 4.266667 29.866667-36.266667 83.2-72.533333 128-38.4 44.8 32 27.733333 93.866667 4.266666 132.266667 40.533333 44.8 57.6 87.466667 51.2 128-8.533333 49.066667-46.933333 78.933333-78.933333 96-12.8 6.4-23.466667 8.533333-34.133333 8.533333zM627.2 147.2c-12.8 0-25.6 2.133333-34.133333 8.533333-25.6 12.8-36.266667 42.666667-40.533334 64-2.133333 8.533333 2.133333 17.066667 8.533334 21.333334l204.8 149.333333c6.4 4.266667 14.933333 6.4 21.333333 2.133333 19.2-8.533333 49.066667-29.866667 55.466667-61.866666 4.266667-27.733333-12.8-61.866667-51.2-100.266667l-14.933334-14.933333 12.8-17.066667c8.533333-12.8 40.533333-66.133333 19.2-83.2-21.333333-14.933333-64 32-72.533333 42.666667l-10.666667 14.933333-21.333333-4.266667c-29.866667-12.8-55.466667-21.333333-76.8-21.333333zM405.333333 989.866667c-25.6 0-51.2-8.533333-74.666666-23.466667l-168.533334-119.466667c-57.6-40.533333-72.533333-121.6-29.866666-179.2l219.733333-309.333333c40.533333-57.6 121.6-72.533333 179.2-29.866667l68.266667 49.066667s23.466667 17.066667 91.733333 66.133333c72.533333 53.333333 74.666667 134.4 38.4 183.466667l-149.333333 213.333333c-8.533333 10.666667-23.466667 12.8-34.133334 6.4-10.666667-8.533333-12.8-23.466667-6.4-34.133333l149.333334-213.333333c23.466667-32 21.333333-83.2-27.733334-117.333334-68.266667-49.066667-91.733333-66.133333-91.733333-66.133333l-68.266667-49.066667c-36.266667-25.6-85.333333-17.066667-110.933333 19.2L170.666667 695.466667c-25.6 36.266667-17.066667 85.333333 19.2 110.933333l168.533333 119.466667c34.133333 25.6 83.2 17.066667 108.8-14.933334 8.533333-10.666667 23.466667-12.8 34.133333-4.266666 10.666667 8.533333 12.8 23.466667 4.266667 34.133333-23.466667 32-61.866667 49.066667-100.266667 49.066667z"
        fill="#000" />
    <path
        d="M422.4 492.8l-2.133333 4.266667c-4.266667 6.4-14.933333 8.533333-21.333334 4.266666l-70.4-49.066666c-6.4-4.266667-8.533333-14.933333-4.266666-21.333334l2.133333-4.266666c4.266667-6.4 14.933333-8.533333 21.333333-4.266667l70.4 49.066667c6.4 6.4 8.533333 14.933333 4.266667 21.333333zM362.666667 563.2l-2.133334 4.266667c-4.266667 6.4-14.933333 8.533333-21.333333 4.266666l-70.4-49.066666c-6.4-4.266667-8.533333-14.933333-4.266667-21.333334l2.133334-4.266666c4.266667-6.4 14.933333-8.533333 21.333333-4.266667l70.4 49.066667c6.4 4.266667 8.533333 14.933333 4.266667 21.333333zM305.066667 642.133333l-2.133334 4.266667c-4.266667 6.4-14.933333 8.533333-21.333333 4.266667l-70.4-49.066667c-6.4-4.266667-8.533333-14.933333-4.266667-21.333333l4.266667-4.266667c4.266667-6.4 14.933333-8.533333 21.333333-4.266667l70.4 49.066667c6.4 6.4 8.533333 14.933333 2.133334 21.333333z"
        fill="#000" />
</svg>