<?xml version="1.0" encoding="utf-8"?>
<svg viewBox="23.123 0.0002 276.877 271.4579" xmlns="http://www.w3.org/2000/svg">
  <path d="M 109.052 110.784 C 113.039 112.204 116.714 114.496 119.757 117.539 C 125.128 122.91 128.147 130.203 128.147 137.792 L 128.147 242.815 C 128.147 250.404 125.128 257.697 119.757 263.068 C 114.386 268.439 107.105 271.458 99.504 271.458 L 51.766 271.458 C 44.165 271.458 36.884 268.439 31.513 263.068 C 26.142 257.697 23.123 250.404 23.123 242.815 L 23.123 137.792 C 23.123 130.203 26.142 122.91 31.513 117.539 C 34.556 114.496 38.231 112.204 42.219 110.784 L 42.219 28.65 C 42.219 18.281 47.816 8.733 56.85 3.662 C 65.897 -1.413 76.972 -1.196 85.817 4.208 L 95.364 10.044 C 103.861 15.259 109.052 24.51 109.052 34.486 L 109.052 110.784 Z M 51.766 128.244 C 49.236 128.244 46.814 129.246 45.011 131.049 C 43.221 132.827 42.219 135.262 42.219 137.792 L 42.219 156.887 L 109.052 156.887 L 109.052 137.792 C 109.052 135.262 108.049 132.827 106.259 131.049 C 104.457 129.246 102.034 128.244 99.504 128.244 L 51.766 128.244 Z M 89.956 109.149 L 89.956 34.486 C 89.956 31.168 88.227 28.076 85.398 26.334 L 75.85 20.499 C 72.89 18.696 69.202 18.626 66.196 20.306 C 63.187 22.002 61.314 25.189 61.314 28.65 L 61.314 109.149 L 89.956 109.149 Z M 42.219 175.982 L 42.219 242.815 C 42.219 245.345 43.221 247.768 45.011 249.57 C 46.814 251.361 49.236 252.363 51.766 252.363 L 99.504 252.363 C 102.034 252.363 104.457 251.361 106.259 249.57 C 108.049 247.768 109.052 245.345 109.052 242.815 L 109.052 175.982 L 42.219 175.982 Z M 166.575 214.173 C 148.925 199.278 137.694 176.997 137.694 152.115 C 137.694 107.325 174.058 70.962 218.847 70.962 C 263.637 70.962 300 107.325 300 152.115 C 300 177 288.769 199.281 271.119 214.173 L 280.905 214.173 C 291.442 214.173 300 222.718 300 233.268 L 300 242.815 C 300 250.404 296.981 257.697 291.61 263.068 C 286.239 268.439 278.959 271.458 271.357 271.458 L 166.334 271.458 C 158.733 271.458 151.452 268.439 146.081 263.068 C 140.71 257.697 137.691 250.404 137.691 242.815 L 137.691 233.268 C 137.691 222.718 146.249 214.173 156.786 214.173 L 166.575 214.173 Z M 280.908 233.268 L 156.789 233.268 L 156.789 242.815 C 156.789 245.345 157.804 247.768 159.582 249.57 C 161.385 251.361 163.807 252.363 166.337 252.363 L 271.36 252.363 C 273.89 252.363 276.313 251.361 278.115 249.57 C 279.894 247.768 280.908 245.345 280.908 242.815 L 280.908 233.268 Z M 218.85 214.173 C 253.102 214.173 280.908 186.364 280.908 152.115 C 280.908 117.866 253.102 90.057 218.85 90.057 C 184.601 90.057 156.793 117.866 156.793 152.115 C 156.793 186.364 184.601 214.173 218.85 214.173 Z M 240.738 153.27 C 244.462 149.545 250.524 149.545 254.248 153.27 C 257.972 156.994 257.972 163.043 254.248 166.768 L 233.518 187.51 C 229.782 191.234 223.732 191.234 220.008 187.51 C 216.284 183.773 216.284 177.736 220.008 173.999 L 240.738 153.27 Z M 221.643 115.079 C 225.367 111.355 231.429 111.355 235.153 115.079 C 238.877 118.804 238.877 124.853 235.153 128.577 L 195.328 168.414 C 191.592 172.139 185.542 172.139 181.818 168.414 C 178.094 164.69 178.094 158.629 181.818 154.904 L 221.643 115.079 Z" fill-rule="evenodd" style=""/>
</svg>