<?xml version="1.0" encoding="utf-8"?>
<svg viewBox="57.642 25.0003 384.717 449.9995" width="384.717" height="450" xmlns="http://www.w3.org/2000/svg">
    <path stroke="#000" stroke-width="2px"
        d="M 209.588 121.61 C 204.256 114.198 192.974 122.331 198.29 129.722 C 211.19 147.664 228.35 149.715 246.509 137.308 C 254.088 132.122 246.213 120.634 238.654 125.794 C 226.804 133.921 217.953 133.256 209.588 121.61 Z M 364.401 142.7 C 362.328 143.44 361.488 145.221 355.273 147.191 L 355.273 147.173 C 352.476 148.034 349.503 148.501 346.398 148.501 L 267.337 148.23 C 263.919 147.756 259.617 145.436 256.199 150.34 C 238.353 175.869 199.481 178.503 178.51 151.003 C 177.047 149.089 174.8 148.155 172.548 148.268 L 102.95 148.526 L 102.95 148.501 C 84.993 148.501 71.656 132.766 71.603 114.865 L 71.623 114.865 C 71.623 91.181 93.258 75.012 113.584 82.893 C 118.409 84.77 123.454 80.801 123.024 75.818 L 123.046 75.818 C 120.441 46.028 152.047 27.91 173.467 45.872 C 178.983 50.506 183.024 57.054 184.706 64.576 C 185.701 69.114 190.765 71.361 194.794 69.209 L 194.794 69.228 C 212.088 59.927 232.864 62.33 247.894 74.971 C 252.192 78.608 258.682 75.799 259.269 70.419 L 259.287 70.419 C 262.548 40.87 296.168 28.146 315.906 49.135 C 323.297 57.014 325.112 64.441 325.853 75.387 C 326.188 80.408 331.01 83.338 335.55 81.482 C 349.698 75.678 366.412 82.343 374.111 96.631 C 378.723 105.175 388.591 93.424 401.139 106.795 C 418.107 124.85 400.633 155.403 378.274 147.272 C 372.074 145.04 369.889 140.077 364.394 142.7 L 364.401 142.7 Z M 359.747 160.387 L 359.417 160.48 C 355.254 161.772 350.896 162.478 346.398 162.478 C 333.969 162.478 272.167 163.124 264.74 161.933 C 239.432 192.009 195.084 192.129 169.633 162.203 L 119.682 162.378 L 119.682 408.798 L 120.812 416.733 C 195.159 439.404 284.283 439.404 358.63 416.733 C 358.845 415.973 359.04 415.191 359.202 414.37 L 359.22 414.37 L 359.747 408.798 L 359.747 160.387 Z M 373.465 413.14 C 380.466 413.435 386.815 418.044 389.671 424.339 L 389.651 424.358 C 394.421 434.874 389.847 448.084 378.705 452.073 C 293.255 482.642 186.17 482.642 100.719 452.073 C 80.826 444.958 85.416 414.02 105.956 413.162 C 105.803 411.715 105.72 410.27 105.72 408.823 L 105.72 162.464 L 102.927 162.484 L 102.927 162.503 C 77.265 162.503 57.757 140.554 57.664 114.909 L 57.642 114.909 C 57.642 86.315 81.451 63.348 109.184 67.471 C 114.087 19.16 177.241 8.741 195.726 53.558 C 212.946 47.069 232.004 48.768 247.835 58.034 C 264.113 9.898 330.782 16.052 339.047 66.188 C 356.794 63.173 373.937 71.286 383.844 85.963 C 394.341 85.36 404.387 89.989 411.248 97.297 C 438.12 125.914 409.822 173.345 373.702 160.488 L 373.702 181.403 L 405.028 181.403 C 426.023 181.403 442.359 199.599 442.359 220.688 L 442.359 323.687 C 442.359 344.774 426.023 362.97 405.028 362.97 L 373.702 362.97 L 373.465 413.14 Z M 373.702 348.977 L 405.032 348.977 C 418.321 348.977 428.407 337.132 428.407 323.644 L 428.407 220.641 C 428.407 207.18 418.321 195.316 405.032 195.316 L 373.702 195.316 L 373.702 208.53 L 405.032 208.53 C 411.562 208.53 416.835 214.159 416.835 220.641 L 416.835 323.644 C 416.835 330.132 411.562 335.763 405.032 335.763 L 373.702 335.763 L 373.702 348.977 Z M 373.702 321.809 L 402.861 321.809 L 402.88 222.499 L 373.72 222.499 L 373.702 321.809 Z M 186.811 255.645 L 186.811 355.951 C 186.811 365.136 172.857 365.136 172.857 355.951 L 172.857 255.645 C 172.857 246.461 186.811 246.461 186.811 255.645 Z M 306.565 255.645 L 306.565 355.951 C 306.565 365.136 292.61 365.136 292.61 355.951 L 292.61 255.645 C 292.61 246.461 306.565 246.461 306.565 255.645 Z M 246.699 255.645 L 246.699 355.951 C 246.699 365.136 232.743 365.136 232.743 355.951 L 232.723 255.645 C 232.723 246.461 246.699 246.461 246.699 255.645 Z M 309.537 455.414 C 242.85 466.402 168.541 461.494 105.391 438.918 C 99.138 436.691 101.819 425.199 108.109 427.288 C 189.745 454.419 289.188 454.575 371.279 427.288 C 373.781 426.47 376.034 428.071 376.949 430.127 L 376.967 430.127 C 378.158 432.746 377.729 437.593 373.998 438.918 C 354.042 446.054 332.407 451.662 309.537 455.414 Z M 141.899 110.567 C 141.005 119.679 154.841 121.043 155.761 111.937 C 157.186 97.593 164.477 92.704 178.839 93.781 C 187.987 94.466 189.045 80.567 179.878 79.886 C 157.987 78.24 144.092 88.643 141.899 110.567 Z M 293.881 101.461 C 294.782 110.589 308.64 109.222 307.742 100.093 C 306.138 83.867 295.541 75.859 279.36 77.068 C 270.195 77.753 271.25 91.648 280.395 90.964 C 289.115 90.318 293.021 92.86 293.881 101.461 Z"
        fill-rule="evenodd" />
</svg>