<svg class="svg-icon" style="width: 1em; height: 1em;vertical-align: middle;fill: currentColor;overflow: hidden;" viewBox="0 0 1024 1024" version="1.1" xmlns="http://www.w3.org/2000/svg"><path d="M960 320H64v128h896V320z m0 192H64v224A96 96 0 0 0 160 832h704a96 96 0 0 0 96-96V512z m-5.44-256A96 96 0 0 0 864 192h-704a96 96 0 0 0-90.56 64h885.12zM160 128h704A160 160 0 0 1 1024 288v448a160 160 0 0 1-160 160h-704A160 160 0 0 1 0 736v-448A160 160 0 0 1 160 128zM192 768a32 32 0 1 1 0-64h128a32 32 0 1 1 0 64H192z"  /></svg>