<?xml version="1.0" encoding="utf-8"?>
<svg viewBox="0 0 500 500" xmlns="http://www.w3.org/2000/svg">
  <path stroke="#000" fill="#000" d="M 92.882 150.185 C 132.36 53.528 204.955 0.19 297.282 0 L 298 0 C 365.61 0 423.105 20.393 459.967 57.475 C 486.455 84.115 500.287 117.52 499.995 154.05 C 499.19 251.383 443.602 276.375 403.002 294.64 C 385.517 302.508 370.415 309.3 366.495 319.525 C 364.472 324.78 369.53 330.303 380.755 340.745 C 395.85 354.853 418.692 376.195 402.075 410.303 C 388.832 437.468 339.42 460.623 283.93 460.623 C 271.992 460.623 259.78 459.55 247.59 457.227 C 242.17 456.195 238.605 450.943 239.66 445.523 C 240.695 440.108 245.927 436.602 251.365 437.595 C 316.68 450.08 374.465 421.355 384.102 401.55 C 393.765 381.748 383.935 371.093 367.105 355.383 C 354.77 343.845 340.765 330.768 347.852 312.355 C 354.747 294.43 373.305 286.078 394.82 276.398 C 432.465 259.46 479.322 238.392 480.02 153.883 C 480.272 122.815 468.437 94.345 445.812 71.568 C 412.742 38.285 360.27 19.978 298.037 19.978 L 297.362 19.978 C 212.475 20.165 148.175 67.793 111.435 157.743 C 109.345 162.85 103.502 165.275 98.402 163.208 C 93.277 161.118 90.832 155.298 92.915 150.175 L 92.882 150.185 Z M 387.292 143.523 C 416.015 143.523 439.402 166.95 439.402 195.738 C 439.402 224.533 416.037 247.96 387.292 247.96 C 358.565 247.96 335.177 224.533 335.177 195.738 C 335.177 166.95 358.55 143.523 387.292 143.523 Z M 387.292 163.515 C 369.58 163.515 355.175 177.98 355.175 195.738 C 355.175 213.503 369.58 227.965 387.292 227.965 C 405.007 227.965 419.41 213.503 419.41 195.738 C 419.41 177.98 405.007 163.515 387.292 163.515 Z M 196.515 122.05 C 190.777 111.905 189.512 97.203 193.375 85.415 C 196.342 76.323 202.06 69.66 209.885 66.135 C 219.23 61.94 227.852 67.468 233.57 71.113 C 235.657 72.443 238.502 74.255 239.767 74.51 C 240.847 74.72 243.142 74.195 245.36 73.71 C 251.072 72.42 259.722 70.46 269.525 75.418 C 277.035 79.19 282.137 87.398 283.152 97.375 C 284.185 107.558 280.767 116.818 273.995 122.173 C 272.775 123.27 270.962 128.248 269.905 131.245 C 266.992 139.365 262.587 151.615 250.1 151.955 C 249.365 151.978 248.647 151.978 247.907 151.978 C 213.41 151.978 200.69 129.538 196.472 122.05 L 196.515 122.05 Z M 213.912 112.2 C 219.482 122.028 227.872 131.985 247.907 131.985 L 248.037 131.985 C 249.025 130.273 250.317 126.73 251.115 124.473 C 253.395 118.145 255.962 110.975 261.617 106.505 C 262.712 105.64 263.64 102.753 263.285 99.4 C 262.927 95.938 261.492 93.748 260.562 93.283 C 257.275 91.635 254.597 92.122 249.765 93.218 C 245.737 94.125 241.202 95.14 236.037 94.168 C 230.977 93.218 226.632 90.438 222.792 87.985 C 221.19 86.975 218.657 85.35 217.27 84.805 C 215.072 86.09 213.43 88.39 212.35 91.658 C 210.035 98.725 211.32 107.665 213.895 112.2 L 213.912 112.2 Z M 394.145 77.02 C 399.355 84.168 407.22 94.968 400.412 105.705 C 384.107 131.33 362.975 134.748 350.742 134.748 C 347.875 134.748 345.515 134.555 343.805 134.43 C 331.867 133.48 318.602 126.077 310.78 115.998 C 304.747 108.21 302.345 99.48 303.862 90.773 C 305.655 80.503 314.937 76.475 321.707 73.543 C 324.087 72.505 327.355 71.07 328.37 70.06 C 329.255 69.175 330.162 66.833 331.047 64.575 C 333.237 58.943 336.57 50.445 346.4 44.9 C 353.905 40.683 363.802 41.06 372.822 45.91 C 382.082 50.888 388.01 59.138 388.665 67.97 C 388.832 69.725 392.162 74.298 394.15 77.02 L 394.145 77.02 Z M 382.78 96.105 C 381.957 94.232 379.507 90.895 377.97 88.79 C 373.877 83.18 369.26 76.83 368.71 69.45 C 368.585 67.913 366.685 65.315 363.355 63.522 C 360.255 61.86 357.345 61.643 356.185 62.317 C 352.73 64.262 351.567 66.918 349.645 71.852 C 348.107 75.8 346.357 80.292 342.562 84.11 C 338.847 87.863 333.977 89.968 329.655 91.845 C 327.737 92.668 324.675 94 323.455 94.945 C 323.202 97.775 324.232 100.727 326.577 103.72 C 331.365 109.9 339.885 114.038 345.365 114.48 C 357.2 115.403 370.927 113.93 382.78 96.128 L 382.78 96.105 Z M 184.557 155.983 C 196.155 156.237 209.42 162.653 217.517 171.97 C 223.825 179.205 226.632 187.558 225.637 196.1 C 224.477 206.268 215.325 210.883 209.275 213.923 C 207.06 215.04 204.042 216.558 203.177 217.53 C 202.422 218.373 201.705 220.608 200.987 222.778 C 199.172 228.37 196.407 236.782 187.15 242.71 C 183.482 245.07 179.092 246.253 174.477 246.253 C 170.217 246.253 165.725 245.242 161.357 243.218 C 152.077 238.915 145.88 231.215 144.74 222.61 C 144.442 221.005 141.07 216.898 139.065 214.445 C 133.602 207.783 125.357 197.725 131.452 186.84 C 149.125 155.205 175.785 155.795 184.535 155.983 L 184.557 155.983 Z M 202.46 185.113 C 197.59 179.525 189.325 176.085 184.137 175.978 C 172.895 175.663 159.987 177.878 149.697 195.258 C 150.647 196.985 153.027 199.918 154.545 201.775 C 158.805 206.985 163.637 212.865 164.565 220.018 C 164.755 221.405 166.757 223.685 169.775 225.078 C 172.895 226.535 175.51 226.405 176.35 225.86 C 179.455 223.873 180.4 221.303 181.945 216.558 C 183.23 212.653 184.665 208.205 188.142 204.263 C 191.537 200.403 196.155 198.08 200.202 196.035 C 201.915 195.17 204.615 193.8 205.775 192.892 C 205.797 190.323 204.68 187.705 202.4 185.09 L 202.46 185.113 Z M 193.73 331.778 C 178.02 299.17 193.73 277.618 198.897 270.528 C 205.775 261.123 218.657 253.91 230.955 252.603 C 240.442 251.61 248.88 254.078 255.29 259.773 C 262.927 266.56 261.45 276.705 260.477 283.415 C 260.12 285.883 259.635 289.235 259.932 290.5 C 260.185 291.595 261.617 293.495 262.987 295.333 C 266.492 300.013 271.805 307.097 271.362 318.085 C 271.005 326.523 265.605 334.558 256.915 339.6 C 251.897 342.488 246.56 343.963 241.5 343.963 C 237.64 343.963 233.925 343.12 230.615 341.393 C 229.12 340.695 223.845 341.118 220.702 341.37 C 212.12 342.045 199.15 343.055 193.73 331.793 L 193.73 331.778 Z M 211.087 321.695 C 213.07 321.908 216.782 321.61 219.165 321.443 C 221.697 321.253 224.375 321.043 227.052 321.043 C 231.437 321.043 235.87 321.61 239.852 323.655 C 241.057 324.288 244.047 323.953 246.92 322.285 C 249.932 320.558 251.347 318.3 251.39 317.263 C 251.537 313.575 249.997 311.32 247.002 307.33 C 244.535 304.04 241.732 300.31 240.507 295.203 C 239.302 290.208 240.042 285.078 240.695 280.565 C 240.97 278.67 241.412 275.653 241.31 274.178 C 239.242 272.698 236.48 272.11 233.082 272.488 C 225.725 273.27 218.132 278.098 215.05 282.32 C 208.387 291.472 202.757 303.28 211.087 321.695 Z M 5.972 224.785 C -5.668 197.85 -0.08 174.378 20.882 162.02 C 42.057 149.553 64.895 156.425 82.065 180.345 C 118.042 230.52 186.69 375.813 189.6 381.995 C 190.42 383.745 190.545 385.623 190.312 387.438 C 204.317 394.04 214.547 403.888 220.79 416.857 C 225.68 427.002 223.047 437.083 220.492 446.828 C 217.517 458.258 214.695 469.058 221.8 482.49 C 223.15 485.045 223.342 488.085 222.285 490.782 C 221.232 493.483 219.062 495.61 216.32 496.56 C 210.855 498.5 203.345 500 194.912 500 C 175.892 500 152.207 492.383 136.787 465.16 C 131.01 454.928 130.375 438.098 130.967 425.02 C 127.95 424.833 125.06 423.33 123.27 420.653 C 119.495 415 30.557 281.645 5.987 224.765 L 5.972 224.785 Z M 134.66 401.675 L 166.8 382.735 L 167.6 382.27 C 164.942 376.74 161.022 368.563 156.257 358.815 L 120.422 379.928 C 126.287 388.955 131.242 396.525 134.66 401.675 Z M 172.982 402.308 L 151.807 414.79 C 150.307 428.795 150.14 448.158 154.21 455.328 C 167.41 478.653 187.277 480.973 199.322 479.835 C 195.167 464.71 198.54 451.763 201.155 441.765 C 203.222 433.88 204.405 428.883 202.78 425.528 C 197.402 414.368 187.49 406.863 172.982 402.328 L 172.982 402.308 Z M 24.345 216.855 C 39.337 251.55 80.655 318.048 109.587 363.12 L 147.417 340.805 C 123.652 292.675 87.797 222.633 65.825 191.97 C 58.167 181.318 45.94 170.438 31.05 179.233 C 15.927 188.152 19.047 204.603 24.345 216.833 L 24.345 216.855 Z" style="" transform="matrix(1, 0, 0, 1, 0, -2.842170943040401e-14)"/>
</svg>