<svg class="svg-icon" style="width: 1.0625em;height: 1em;vertical-align: middle;fill: currentColor;overflow: hidden;"
    viewBox="0 0 1088 1024" version="1.1" xmlns="http://www.w3.org/2000/svg">
    <path
        d="M64 960h960l-5.312-896H64v896zM704 128h64v64h-64V128z m192 128v512H192V256h704zM512 128h64v64H512V128zM320 128h64v64H320V128zM128 128h64v64H128V128z m62.656 768h-64v-64h64v64zM384 896H320v-64h64v64z m192 0H512v-64h64v64z m192 0h-64v-64h64v64z m192 0h-64v-64h64v64z m0-704h-64V128h64v64z"
        fill="#000" />
    <path d="M448.192 631.36L448 384l252.736 128.96-252.544 118.4z" fill="#000" />
</svg>