<?xml version="1.0" encoding="utf-8"?>
<svg viewBox="0 0 200 126.6689" xmlns="http://www.w3.org/2000/svg">
  <g transform="matrix(2.1333630084991455, 0, 0, 2.1333630084991455, -6.666759014129639, -43.334259033203125)" style="">
    <path d="m75 56.25c0-0.86328-0.69922-1.5625-1.5625-1.5625h-68.75c-0.86328 0-1.5625 0.69922-1.5625 1.5625v7.8125c0 8.6172 7.0117 15.625 15.625 15.625s15.625-7.0078 15.625-15.625h9.375c0 8.6172 7.0117 15.625 15.625 15.625s15.625-7.0078 15.625-15.625zm-43.75 7.8125c0 6.8906-5.6094 12.5-12.5 12.5s-12.5-5.6094-12.5-12.5v-6.25h25zm3.125-3.125v-3.125h9.375v3.125zm37.5 3.125c0 6.8906-5.6094 12.5-12.5 12.5s-12.5-5.6094-12.5-12.5v-6.25h25z"/>
    <path d="m44.75 76.562h-2.5625v-4.7344c0-0.86328-0.69922-1.5625-1.5625-1.5625s-1.5625 0.69922-1.5625 1.5625v6.2969c0 0.86328 0.69922 1.5625 1.5625 1.5625h4.125c0.86328 0 1.5625-0.69922 1.5625-1.5625s-0.69922-1.5625-1.5625-1.5625z"/>
    <path d="m96.582 39.059-10.109-14.078c-0.20703-0.28906-0.50391-0.49609-0.84375-0.59375l-14.156-4.0156c-0.47266-0.13281-0.97656-0.039063-1.3672 0.25781s-0.62109 0.75781-0.62109 1.2461c0 4.6797-3.8359 8.4844-8.5469 8.4844s-8.5469-3.8047-8.5469-8.4844c0-0.48828-0.23047-0.95312-0.62109-1.2461-0.39062-0.29688-0.89453-0.38672-1.3672-0.25781l-14.156 4.0156c-0.33984 0.097656-0.63672 0.30469-0.84375 0.59375l-10.109 14.078c-0.44531 0.625-0.375 1.4805 0.16797 2.0195l10.105 10.043c0.60547 0.60938 1.6094 0.59766 2.2227-0.011719l1.2734-1.2656v0.15625c0 0.86328 0.69922 1.5625 1.5625 1.5625s1.5625-0.69922 1.5625-1.5625v-3.0547l0.082031-0.77734c0.070313-0.65625-0.27734-1.2891-0.875-1.5742-0.59375-0.28906-1.3086-0.16797-1.7773 0.29688l-2.9453 2.9219-8.0625-8.0156 9.0117-12.555 11.82-3.3516c0.96094 5.4453 5.75 9.5938 11.496 9.5938 5.7422 0 10.531-4.1484 11.496-9.5938l11.82 3.3516 9.0117 12.555-8.0625 8.0156-2.9453-2.9219c-0.60937-0.60547-1.6016-0.60156-2.2109 0.007813-0.46484 0.46875-0.56641 1.1562-0.3125 1.7305-0.011719 0.078125-0.046875 0.14844-0.046875 0.23047v29.703h-5.6719c-0.86328 0-1.5625 0.69922-1.5625 1.5625s0.69922 1.5625 1.5625 1.5625h7.2344c0.86328 0 1.5625-0.69922 1.5625-1.5625v-28.281l1.2891 1.2812c0.30469 0.30078 0.70313 0.45312 1.1016 0.45312s0.79688-0.15234 1.1016-0.45312l10.109-10.047c0.54297-0.54297 0.61328-1.3984 0.16797-2.0195z"/>
  </g>
</svg>