<?xml version="1.0" encoding="utf-8"?>
<svg viewBox="0 0.0001 824.7455 1019.3066" xmlns="http://www.w3.org/2000/svg">
  <g transform="matrix(0.044593002647161484, 0, 0, -0.044593002647161484, -224.39459228515622, 1115.0482177734375)" fill="#000" stroke="none" style="">
    <path d="M16730 24634 c-1 -1569 -237 -2544 -833 -3439 -162 -243 -309 -432&#10;-686 -880 -431 -511 -656 -803 -886 -1145 -507 -755 -897 -1623 -1214 -2700&#10;l-60 -205 7 125 c14 247 7 1020 -11 1240 -67 795 -199 1595 -418 2530 -94 401&#10;-259 1016 -352 1310 l-24 75 -7 -135 c-24 -453 -43 -685 -82 -975 -160 -1214&#10;-512 -2207 -1158 -3265 -138 -226 -422 -652 -731 -1095 -529 -761 -778 -1156&#10;-1011 -1610 -464 -903 -702 -1772 -800 -2915 -21 -253 -30 -1015 -15 -1287 77&#10;-1359 442 -2392 1122 -3178 128 -148 343 -353 524 -501 207 -169 224 -180 460&#10;-319 636 -375 1316 -605 2250 -759 996 -164 2222 -183 3265 -50 338 43 426 61&#10;875 177 590 153 914 291 1497 636 376 222 826 636 1130 1037 570 752 924 1731&#10;1053 2907 49 445 69 1180 46 1662 -127 2649 -981 5843 -2719 10180 -222 554&#10;-1023 2489 -1202 2905 l-19 45 -1 -371z m-895 -9686 c552 -1144 1017 -2630&#10;1209 -3868 36 -230 73 -532 92 -745 21 -251 30 -805 15 -1035 -62 -958 -328&#10;-1666 -806 -2146 -379 -381 -906 -611 -1551 -679 -315 -33 -547 -30 -839 10&#10;-592 82 -1098 328 -1496 724 -360 360 -604 761 -775 1279 -177 531 -228 1099&#10;-143 1573 55 307 167 571 381 892 190 287 376 509 914 1092 410 446 543 600&#10;701 812 248 333 379 596 447 897 4 15 9 27 11 25 8 -9 106 -385 140 -535 128&#10;-582 153 -1085 67 -1361 -11 -35 -19 -63 -17 -63 5 0 538 690 630 815 495 677&#10;743 1245 859 1965 27 165 56 424 56 496 0 24 3 44 6 44 3 0 47 -87 99 -192z"/>
    <path d="M18919 6053 c-101 -74 -334 -225 -451 -292 -110 -63 -373 -196 -486&#10;-246 -35 -16 -59 -32 -55 -36 4 -4 564 -220 1243 -479 679 -259 1254 -481&#10;1278 -492 137 -69 246 -278 282 -542 5 -44 11 -80 13 -81 7 -4 1860 -336 1862&#10;-333 1 2 -3 39 -11 83 -7 44 -16 150 -20 235 -20 465 115 1062 321 1424 25 44&#10;43 82 40 85 -3 2 -881 163 -1952 357 -1071 194 -1959 355 -1973 358 -22 4 -41&#10;-5 -91 -41z"/>
    <path d="M7770 5463 c-1207 -344 -2197 -627 -2199 -629 -2 -2 26 -47 62 -101&#10;200 -299 346 -688 418 -1118 18 -105 23 -172 23 -347 1 -120 5 -218 10 -218 4&#10;0 763 214 1685 476 922 262 2468 700 3436 975 968 275 1769 503 1780 508 15 6&#10;-3 11 -65 20 -559 79 -1107 212 -1587 385 -98 35 -225 81 -283 102 -108 39&#10;-453 210 -640 317 -58 33 -173 104 -256 158 -83 55 -159 99 -170 98 -10 -1&#10;-1007 -282 -2214 -626z"/>
    <path d="M23376 5243 c-145 -198 -274 -564 -333 -943 -25 -164 -25 -522 0&#10;-638 19 -90 54 -192 65 -192 4 0 26 22 50 50 230 267 404 942 363 1409 -16&#10;182 -61 346 -99 359 -6 2 -27 -18 -46 -45z"/>
    <path d="M17210 5235 c-193 -62 -663 -162 -990 -209 -461 -67 -1273 -118&#10;-1721 -108 l-175 4 -520 -148 c-285 -80 -522 -149 -526 -153 -5 -5 6050 -2318&#10;6096 -2329 10 -2 12 39 8 195 -13 598 153 1285 416 1713 22 36 37 68 34 71 -8&#10;7 -2538 970 -2561 975 -9 2 -36 -3 -61 -11z"/>
    <path d="M5056 4681 c-34 -54 -31 -435 4 -636 27 -156 80 -357 131 -498 55&#10;-150 172 -376 246 -473 60 -79 134 -154 153 -154 14 0 29 65 42 183 36 350&#10;-101 924 -310 1289 -65 114 -154 230 -208 270 -40 30 -50 33 -58 19z"/>
    <path d="M20211 4028 c-275 -420 -450 -1266 -365 -1764 7 -45 17 -92 22 -104&#10;8 -22 11 -20 50 37 142 209 275 583 337 948 51 297 58 680 17 848 -11 43 -21&#10;80 -24 82 -2 2 -19 -19 -37 -47z"/>
  </g>
</svg>