<?xml version="1.0" encoding="utf-8"?>
<svg viewBox="0 0 500 500" width="500" height="500" xmlns="http://www.w3.org/2000/svg">
  <path stroke="#000" fill="#000" d="M 486.407 240.185 L 423.148 240.185 L 389.547 105.771 C 388.446 101.387 384.52 98.307 379.987 98.307 L 340.38 98.307 L 333.502 70.734 L 397.176 70.734 L 459.621 213.457 C 461.803 218.442 467.623 220.73 472.586 218.527 C 477.576 216.346 479.842 210.547 477.677 205.557 L 412.652 56.929 C 411.093 53.338 407.539 51.029 403.634 51.029 L 320.883 51.029 C 317.85 51.029 314.983 52.423 313.11 54.833 C 311.243 57.221 310.578 60.339 311.323 63.291 L 323.149 110.586 C 324.25 114.975 328.176 118.049 332.709 118.049 L 372.295 118.049 L 402.842 240.222 L 28.574 240.179 L 102.723 70.729 L 166.397 70.729 L 159.519 98.302 L 119.912 98.302 C 115.379 98.302 111.453 101.382 110.352 105.766 L 85.226 206.265 C 83.896 211.542 87.12 216.905 92.397 218.213 C 97.653 219.543 103.016 216.319 104.346 211.042 L 127.599 118.028 L 167.19 118.028 C 171.717 118.028 175.649 114.953 176.75 110.57 L 188.571 63.27 C 189.321 60.318 188.656 57.205 186.783 54.811 C 184.916 52.423 182.048 51.013 179.011 51.013 L 96.259 51.013 C 92.354 51.013 88.801 53.317 87.242 56.913 L 4.49 246.084 L 4.49 246.127 C 4.24 246.728 4.198 247.414 4.075 248.058 C 3.953 248.702 3.703 249.324 3.703 249.952 L 3.703 249.989 L 3.703 309.088 C 3.703 312.828 5.799 316.238 9.145 317.903 L 27.35 327.001 L 27.35 403.661 C 27.35 406.284 28.387 408.795 30.239 410.625 L 65.712 446.098 C 67.563 447.949 70.053 448.987 72.676 448.987 L 197.343 448.987 C 211.117 448.987 223.672 440.299 228.534 427.457 C 233.29 414.987 241.462 401.687 250 401.687 C 258.544 401.687 266.71 414.987 271.466 427.414 C 276.35 440.299 288.905 448.965 302.683 448.965 L 427.329 448.965 C 429.947 448.965 432.458 447.928 434.288 446.077 L 469.761 410.603 C 471.613 408.752 472.65 406.262 472.65 403.64 L 472.65 326.979 L 490.855 317.882 C 494.201 316.196 496.297 312.786 496.297 309.067 L 496.297 249.968 C 496.297 244.526 491.892 240.121 486.45 240.121 L 486.407 240.185 Z M 476.56 303.066 L 458.355 312.169 C 455.009 313.85 452.908 317.26 452.908 320.978 L 452.908 399.634 L 423.212 429.329 L 302.641 429.329 C 296.991 429.329 291.836 425.776 289.82 420.456 C 280.324 395.686 266.173 382.051 249.941 382.051 C 233.732 382.051 219.559 395.702 210.042 420.498 C 208.047 425.776 202.892 429.329 197.263 429.329 L 76.693 429.329 L 46.997 399.634 L 46.997 320.978 C 46.997 317.238 44.895 313.828 41.549 312.169 L 23.35 303.066 L 23.35 259.9 L 476.523 259.9 L 476.523 303.066 L 476.56 303.066 Z M 320.601 275.653 C 302.29 275.653 287.394 290.554 287.394 308.865 L 287.394 368.571 C 287.394 386.876 302.29 401.778 320.601 401.778 L 403.954 401.778 C 422.238 401.778 437.139 386.876 437.139 368.571 L 437.139 308.865 C 437.139 290.554 422.238 275.653 403.954 275.653 L 320.601 275.653 Z M 403.954 382.051 L 320.601 382.051 C 319.25 382.051 317.962 381.785 316.712 381.408 L 359.628 327.793 C 363.033 323.537 362.325 317.345 358.09 313.935 C 353.829 310.525 347.637 311.232 344.227 315.472 L 307.094 361.878 L 307.094 308.844 C 307.094 301.401 313.137 295.358 320.58 295.358 L 403.932 295.358 C 404.076 295.358 404.22 295.395 404.369 295.395 L 360.479 350.275 C 357.069 354.537 357.777 360.729 362.017 364.139 C 363.847 365.591 366.006 366.299 368.166 366.299 C 371.055 366.299 373.923 365.033 375.875 362.602 L 417.44 310.647 L 417.44 368.565 C 417.44 376.008 411.391 382.051 403.954 382.051 Z M 179.33 275.653 L 95.977 275.653 C 77.687 275.653 62.786 290.554 62.786 308.865 L 62.786 368.571 C 62.786 386.876 77.687 401.778 95.977 401.778 L 179.33 401.778 C 197.636 401.778 212.537 386.876 212.537 368.571 L 212.537 308.865 C 212.537 290.554 197.636 275.653 179.33 275.653 Z M 192.816 368.565 C 192.816 376.008 186.767 382.057 179.33 382.057 L 95.977 382.057 C 88.535 382.057 82.491 376.008 82.491 368.565 L 82.491 308.86 C 82.491 301.422 88.535 295.374 95.977 295.374 L 179.33 295.374 C 186.767 295.374 192.816 301.422 192.816 308.86 L 192.816 368.565 Z" style="transform-origin: 250px 250px;"/>
</svg>