<svg class="svg-icon" style="width: 1.00390625em; height: 1em;vertical-align: middle;fill: currentColor;overflow: hidden;" viewBox="0 0 1028 1024" version="1.1" xmlns="http://www.w3.org/2000/svg"><path d="M793.353 127.013a24.3 24.3 0 0 0-19.332-9.577h-298.96c-8.83 0 7.116 44.368 8.83 51.925 0.526 2.318 19.612-2.23 20.898 0l162.03 264.52-1.653-20.814L478.58 901.573c-1.857 4.86-3.067 9.245-3.518 13.507-1.09 10.286 1.37 20.2 12.65 26.848 10.899 6.422 20.395 4.126 28.887-1.318 3.571-2.289 6.95-5.303 10.472-9.09l419.87-406.446c9.642-9.334 9.891-24.718 0.556-34.36s-24.718-9.892-34.36-0.557L492.37 897.515c7.802-8.44 36.538 8.493 31.609 21.399l186.587-488.506a24.3 24.3 0 0 0-1.652-20.814l-161.54-280.001-21.048 36.443h247.694l-19.332-9.577 204.617 268.68c8.13 10.677 23.377 12.74 34.054 4.61 10.677-8.132 12.74-23.379 4.61-34.056l-204.617-268.68z"  /><path d="M773.224 175.24l-96.923 226.156-14.517 33.872H990.788v-48.6H698.636l22.335 33.873 96.924-226.156-44.67-19.144zM451.432 129.593L289.893 409.594l-5.605 9.715 3.757 10.568 173.537 488.172c-4.408-12.401 24.038-29.206 32.657-19.664L48.972 405.45l1.947 30.12 193.847-280.001-19.98 10.468h247.695l-21.049-36.443z m42.097 24.286l21.025-36.443H212.055l-7.247 10.468L10.96 407.906 0 423.737l12.907 14.29 445.267 492.935c3.526 3.904 6.914 7.006 10.519 9.366 8.505 5.57 18.172 7.931 29.141 1.451 11.031-6.516 13.607-16.202 12.76-26.366-0.357-4.287-1.47-8.723-3.22-13.642L333.839 413.598l-1.848 20.283 161.539-280.002z"  /><path d="M191.682 194.385l96.924 226.156 22.335-33.873H52.478v48.6h295.315l-14.517-33.872-96.923-226.155-44.67 19.144z"  /><path d="M310.389 422.566h656.099c13.42 0 24.3-10.88 24.3-24.3s-10.88-24.3-24.3-24.3H310.389c-13.42 0-24.3 10.88-24.3 24.3s10.88 24.3 24.3 24.3z"  /></svg>