<?xml version="1.0" encoding="utf-8"?>
<svg viewBox="0 0 100 100" width="24" height="24" xmlns="http://www.w3.org/2000/svg" fill="#000">
    <g>
        <path
            d="m29.078 58.945-7.4023 4.8281v-0.003907c-1.8594-1.4492-4.5039-1.2891-6.1719 0.37891l-5.375 5.375c-0.91016 0.91016-1.4062 2.1523-1.3711 3.4375 0.03125 1.2852 0.59375 2.5 1.5469 3.3594l18.055 16.25h0.003906c1.5273 1.3867 3.7812 1.6055 5.5469 0.53516l6.6914-4.0156v0.003906c1.1328-0.68359 1.918-1.8164 2.1562-3.1133h19.824c3.5625 0 7.0078-1.2656 9.7188-3.5703l17.25-14.52v-0.003906c1.9844-1.6758 3.1016-4.1641 3.0273-6.7617-0.070313-2.5977-1.3203-5.0234-3.3984-6.5859-2.8281-2.0898-6.6328-2.2617-9.6406-0.4375l-19.031 11.836h-2.0664c-0.019531-1.9648-0.70703-3.8633-1.9414-5.3867 8.6328-1.3945 16.094-6.7969 20.117-14.562 4.0195-7.7656 4.125-16.98 0.28516-24.836-3.8438-7.8555-11.18-13.426-19.781-15.02-8.5977-1.5898-17.445 0.98438-23.844 6.9453-6.4023 5.957-9.6016 14.598-8.625 23.289 0.97266 8.6914 6.0078 16.406 13.57 20.801h-3.1797c-2.1211 0.003906-4.1914 0.62109-5.9648 1.7773zm2.4844 29.5-17.363-15.625 4.6367-4.6406 18.488 16.805zm29.691-17.297-0.003906-0.003907c0.48828 0 0.96484-0.13672 1.375-0.39062l19.676-12.238h0.003907c1.168-0.69922 2.6445-0.62891 3.7422 0.18359 0.8125 0.61328 1.3047 1.5664 1.3281 2.5859 0.027344 1.0078-0.40625 1.9688-1.1758 2.6172l-17.262 14.531c-1.7734 1.5078-4.0273 2.3359-6.3555 2.3359h-22.156l-14.738-13.398 6.2266-4.0586c0.92969-0.60938 2.0156-0.93359 3.1289-0.9375h14.543-0.003907c0.99219-0.003906 1.9453 0.39844 2.6328 1.1172 0.63281 0.65625 0.98828 1.5312 1 2.4453h-3.7773c-1.4375 0-2.6055 1.1641-2.6055 2.6055 0 1.4375 1.168 2.6016 2.6055 2.6016h11.812zm-31.566-37.816c0-5.9375 2.3594-11.637 6.5586-15.836 4.1992-4.1992 9.8984-6.5586 15.836-6.5586 5.9414 0 11.637 2.3594 15.836 6.5586 4.2031 4.1992 6.5625 9.8984 6.5625 15.836 0 5.9414-2.3594 11.637-6.5625 15.836-4.1992 4.2031-9.8945 6.5625-15.836 6.5625-5.9375-0.007813-11.629-2.3711-15.828-6.5664-4.1992-4.1992-6.5586-9.8945-6.5664-15.832z" />
        <path
            d="m54.688 48.957v-1.9219c3.8477-0.76953 6.6797-4.0547 6.875-7.9727-0.19531-3.918-3.0273-7.2031-6.875-7.9727v-5.9258c0.95312 0.45703 1.5859 1.3867 1.668 2.4414 0 1.4375 1.1641 2.6016 2.6016 2.6016s2.6055-1.1641 2.6055-2.6016c-0.19531-3.9219-3.0273-7.207-6.875-7.9727v-1.9258c0-1.4375-1.1641-2.6016-2.6055-2.6016-1.4375 0-2.6016 1.1641-2.6016 2.6016v1.9258c-3.8477 0.76563-6.6836 4.0508-6.875 7.9727 0.19141 3.918 3.0273 7.2031 6.875 7.9727v5.9258c-0.95312-0.45703-1.5898-1.3906-1.668-2.4414 0-1.4375-1.1641-2.6055-2.6055-2.6055-1.4375 0-2.6016 1.168-2.6016 2.6055 0.19141 3.918 3.0273 7.2031 6.875 7.9727v1.9219c0 1.4414 1.1641 2.6055 2.6016 2.6055 1.4414 0 2.6055-1.1641 2.6055-2.6055zm1.668-9.8945c-0.082031 1.0508-0.71484 1.9844-1.668 2.4414v-4.8828c0.95312 0.45703 1.5859 1.3906 1.668 2.4414zm-8.5391-11.457h-0.003906c0.078125-1.0547 0.71484-1.9844 1.668-2.4414v4.8789c-0.95312-0.45703-1.5898-1.3867-1.668-2.4375z" />
    </g>
</svg>