<?xml version="1.0" encoding="utf-8"?>
<svg viewBox="0 0 160 200" xmlns="http://www.w3.org/2000/svg">
  <path fill-rule="evenodd" clip-rule="evenodd" d="M 129.999 110 C 129.999 137.61 107.61 160 80.001 160 C 52.389 160 30.001 137.61 30.001 110 C 30.001 82.379 52.389 60 80.001 60 C 107.61 60 129.999 82.379 129.999 110 Z M 110 110 C 110 126.569 96.57 140 80.001 140 C 63.43 140 50 126.569 50 110 C 50 93.43 63.43 79.999 80.001 79.999 C 96.57 79.999 110 93.43 110 110 Z" fill="#000" style=""/>
  <path d="M 129.999 39.999 C 129.999 45.52 125.52 50 119.999 50 C 114.48 50 110 45.52 110 39.999 C 110 34.47 114.48 30.001 119.999 30.001 C 125.52 30.001 129.999 34.47 129.999 39.999 Z" fill="#000" style=""/>
  <path d="M 94.999 44.999 C 97.76 44.999 100 42.76 100 39.999 C 100 37.24 97.76 35 94.999 35 C 92.24 35 89.999 37.24 89.999 39.999 C 89.999 42.76 92.24 44.999 94.999 44.999 Z" fill="#000" style=""/>
  <path d="M 80.001 39.999 C 80.001 42.76 77.761 44.999 74.999 44.999 C 72.239 44.999 69.999 42.76 69.999 39.999 C 69.999 37.24 72.239 35 74.999 35 C 77.761 35 80.001 37.24 80.001 39.999 Z" fill="#000" style=""/>
  <path d="M 59.998 30.001 L 30.001 30.001 L 30.001 50 L 59.998 50 L 59.998 30.001 Z" fill="#000" style=""/>
  <path fill-rule="evenodd" clip-rule="evenodd" d="M 0 200 L 0 0 L 160 0 L 160 200 L 0 200 Z M 19.999 19.999 L 140 19.999 L 140 180.001 L 19.999 180.001 L 19.999 19.999 Z" fill="#000" style=""/>
</svg>