<svg class="svg-icon" style="width: 1em;height: 1em;vertical-align: middle;fill: currentColor;overflow: hidden;"
    viewBox="0 0 1024 1024" version="1.1" xmlns="http://www.w3.org/2000/svg">
    <path
        d="M975.38048 498.76992c-75.10016-98.54976-211.23072-113.58208-219.5456-117.9648 0 0-17.08032-0.28672-21.05344-13.02528-40.87808-97.81248-95.35488-157.85984-167.50592-171.78624-80.6912-18.28864-154.0096 35.30752-175.77984 56.03328L336.896 204.63616l0.36864-21.21728c0.45056-25.33376-11.91936-50.87232-32.91136-68.13696l-83.968-77.45536C186.92096 3.4816 122.96192 6.57408 88.02304 48.18944L31.60064 106.2912c-34.75456 37.376-35.84 100.82304 6.144 135.33184l83.82464 77.45536c16.81408 17.16224 42.27072 26.05056 63.56992 26.4192l4.3008 0.08192c4.17792 0.08192 12.8 0.22528 17.05984-3.91168l46.14144 43.13088c-26.25536 37.53984-65.72032 104.40704-45.6704 176.5376 15.99488 63.5904 66.19136 115.26144 150.8352 146.28864 12.71808 4.44416 12.43136 21.31968 12.43136 21.31968-0.08192 4.21888-4.13696 236.60544 246.70208 274.75968 0 0 129.14688 21.504 253.78816-66.9696 86.6304-61.44 134.144-179.69152 148.39808-264.00768 9.5232-59.06432-6.3488-122.6752-43.74528-173.9776z m-761.0368-218.9312c-4.7104 8.86784-18.3296 13.1072-27.4432 12.94336-9.09312-0.14336-22.54848-4.85376-27.0336-9.4208L71.0656 201.25696a36.49536 36.49536 0 0 1-13.70112-26.19392 36.4544 36.4544 0 0 1 10.09664-27.7504l59.86304-66.1504c8.27392-8.78592 19.92704-13.4144 31.86688-12.84096 8.99072 0.16384 18.0224 4.79232 27.0336 9.4208l88.92416 82.24768c8.97024 8.97024 13.23008 18.1248 13.08672 27.05408-0.16384 8.94976-4.95616 22.26176-9.58464 26.78784l-64.3072 66.048z m96.01024-20.7872l174.77632 174.96064c-21.504 12.288-45.54752 34.54976-50.93376 50.95424l-175.98464-171.9296 52.14208-53.98528zM955.1872 675.7376c-14.41792 92.73344-70.71744 165.39648-130.12992 212.02944-80.896 63.40608-183.35744 59.14624-202.01472 55.7056-194.3552-36.0448-193.3312-200.8064-193.26976-205.0048 0.36864-21.23776-7.45472-59.24864-45.568-76.8-67.584-26.624-109.64992-65.24928-117.41184-107.60192-11.9808-46.65344 14.4384-92.75392 32.0512-121.99936l125.7472 124.76416 126.13632-145.69472-113.27488-111.86176c21.58592-16.50688 69.18144-49.4592 124.416-40.0384 46.73536 9.25696 88.51456 56.4224 121.26208 133.12 16.44544 38.27712 54.5792 47.37024 71.68 47.67744 0 0 119.05024 14.7456 177.39776 91.7504 24.73984 42.65984 32.41984 89.23136 22.97856 143.95392z"
        fill="#000" />
    <path
        d="M446.83264 446.83264a133.12 133.12 0 1 0 188.25216 188.25216 133.12 133.12 0 0 0-188.25216-188.25216z m43.43808 43.43808a71.68 71.68 0 1 1 101.376 101.376 71.68 71.68 0 0 1-101.376-101.376z"
        fill="#000" />
</svg>