<svg class="svg-icon" style="width: 1em; height: 1em;vertical-align: middle;fill: currentColor;overflow: hidden;"
    viewBox="0 0 1024 1024" version="1.1" xmlns="http://www.w3.org/2000/svg">
    <path
        d="M727.466667 857.6H725.333333c-12.8-2.133333-21.333333-12.8-21.333333-25.6l19.2-155.733333c2.133333-12.8 12.8-23.466667 25.6-21.333334 12.8 2.133333 21.333333 12.8 21.333333 25.6l-19.2 155.733334c0 10.666667-10.666667 21.333333-23.466666 21.333333z"
        fill="#000" />
    <path
        d="M684.8 1017.6H324.266667c-25.6 0-49.066667-19.2-51.2-44.8l-34.133334-317.866667H746.666667c12.8 0 23.466667 10.666667 23.466666 23.466667 0 12.8-10.666667 23.466667-23.466666 23.466667H292.266667L320 966.4c0 2.133333 2.133333 4.266667 4.266667 4.266667h360.533333c2.133333 0 4.266667-2.133333 4.266667-4.266667l2.133333-14.933333c2.133333-12.8 12.8-23.466667 25.6-21.333334 12.8 2.133333 21.333333 12.8 21.333333 25.6l-2.133333 14.933334c-2.133333 25.6-25.6 46.933333-51.2 46.933333z"
        fill="#000" />
    <path
        d="M795.733333 701.866667H217.6c-19.2 0-36.266667-12.8-38.4-32L162.133333 576c-2.133333-10.666667 0-23.466667 8.533334-32 8.533333-8.533333 19.2-14.933333 29.866666-14.933333h612.266667c12.8 0 23.466667 4.266667 29.866667 14.933333 8.533333 8.533333 10.666667 21.333333 8.533333 32l-17.066667 93.866667c-2.133333 17.066667-19.2 32-38.4 32z m-6.4-42.666667z m-565.333333-6.4H789.333333l14.933334-78.933333H211.2l12.8 78.933333z"
        fill="#000" />
    <path
        d="M494.933333 565.333333c-8.533333 0-12.8-2.133333-14.933333-2.133333l-6.4-2.133333-4.266667-6.4c-57.6-76.8-40.533333-196.266667-40.533333-200.533334C473.6 93.866667 682.666667 21.333333 691.2 19.2l36.266667-12.8-4.266667 38.4c-38.4 281.6-102.4 454.4-181.333333 505.6-19.2 10.666667-34.133333 14.933333-46.933334 14.933333z m174.933334-484.266666c-57.6 32-164.266667 110.933333-194.133334 279.466666 0 0-12.8 93.866667 23.466667 155.733334 4.266667 0 10.666667-4.266667 19.2-8.533334 38.4-27.733333 104.533333-117.333333 151.466667-426.666666z"
        fill="#000" />
    <path
        d="M454.4 552.533333c-6.4-6.4-151.466667-164.266667-183.466667-330.666666L264.533333 192l32 2.133333c14.933333 2.133333 142.933333 14.933333 194.133334 61.866667l-32 36.266667c-25.6-23.466667-89.6-38.4-134.4-44.8 40.533333 140.8 162.133333 273.066667 164.266666 275.2l-34.133333 29.866666z"
        fill="#000" />
</svg>