<?xml version="1.0" encoding="utf-8"?>
<svg viewBox="18.805 -0.0003 273.779 274.7763" xmlns="http://www.w3.org/2000/svg">
    <path
        d="M 253.391 170.287 L 251.619 78.07 L 207.035 12.346 C 194.674 -5.66 167.455 -3.54 158.039 16.17 C 156.851 18.653 156.031 21.299 155.606 24.015 C 152.229 2.437 126.759 -7.395 109.756 6.32 C 107.613 8.047 105.734 10.077 104.177 12.346 L 59.593 78.176 L 57.82 170.393 L 18.805 209.975 L 84.669 274.776 L 150.392 207.99 L 150.392 127.016 C 150.324 109.753 137.559 95.176 120.457 92.824 L 151.74 43.168 C 153.775 39.93 155.127 36.308 155.712 32.528 C 156.297 36.308 157.649 39.93 159.684 43.168 L 190.967 92.824 C 173.783 95.133 160.95 109.785 160.926 127.122 L 160.926 208.096 L 226.825 274.776 L 292.584 209.87 L 253.391 170.287 Z M 84.351 254.736 L 38.809 209.728 L 51.328 197.066 L 96.87 242.074 L 84.351 254.736 Z M 139.644 35.826 L 100.914 97.187 L 101.304 161.88 L 115.492 161.88 L 115.171 106.869 L 117.158 106.869 C 127.816 107.614 136.087 116.474 136.098 127.158 L 136.098 202.244 L 106.731 231.966 L 61.296 186.957 L 71.936 176.316 L 73.745 82.716 L 115.952 20.363 C 122.209 11.414 135.811 12.595 140.433 22.488 C 142.447 26.803 142.166 31.841 139.681 35.897 L 139.644 35.826 Z M 175.113 127.158 C 175.123 116.474 183.396 107.614 194.053 106.869 L 196.039 106.869 L 195.721 161.88 L 209.907 161.88 L 210.297 97.223 L 171.566 35.792 C 166.168 26.3 173.07 14.52 183.991 14.591 C 188.453 14.623 192.638 16.749 195.295 20.327 L 237.502 82.645 L 239.31 176.245 L 249.951 186.886 L 204.374 231.966 L 175.007 202.244 L 175.113 127.158 Z M 214.342 242.074 L 259.882 197.066 L 272.402 209.728 L 226.862 254.736 L 214.342 242.074 Z"
        style="" />
</svg>