<svg xmlns="http://www.w3.org/2000/svg" xmlns:xlink="http://www.w3.org/1999/xlink" version="1.1" width="256"
    height="256" viewBox="0 0 256 256" xml:space="preserve">

    <defs>
    </defs>
    <g style="stroke: none; stroke-width: 0; stroke-dasharray: none; stroke-linecap: butt; stroke-linejoin: miter; stroke-miterlimit: 10; fill: none; fill-rule: nonzero; opacity: 1;"
        transform="translate(1.4065934065934016 1.4065934065934016) scale(2.81 2.81)">
        <circle cx="45" cy="45" r="45"
            style="stroke: none; stroke-width: 1; stroke-dasharray: none; stroke-linecap: butt; stroke-linejoin: miter; stroke-miterlimit: 10; fill: rgb(32,143,232); fill-rule: nonzero; opacity: 1;"
            transform="  matrix(1 0 0 1 0 0) " />
        <path
            d="M 28.051 52.799 c -1.104 0 -2 0.896 -2 2 v 1.271 c -4.917 -8.419 -3.796 -19.421 3.414 -26.63 c 6.046 -6.045 15.138 -8.041 23.165 -5.084 c 1.039 0.381 2.187 -0.149 2.568 -1.186 c 0.382 -1.037 -0.149 -2.187 -1.186 -2.568 c -9.486 -3.494 -20.232 -1.135 -27.375 6.01 c -8.677 8.676 -9.916 22.01 -3.732 32.026 l -1.294 -0.315 c -1.074 -0.265 -2.155 0.396 -2.417 1.47 c -0.261 1.073 0.397 2.155 1.47 2.417 l 6.914 1.684 c 0.013 0.003 0.027 0.002 0.04 0.005 c 0.143 0.032 0.288 0.052 0.433 0.052 c 0.201 0 0.399 -0.039 0.593 -0.099 c 0.03 -0.009 0.059 -0.016 0.088 -0.026 c 0.18 -0.065 0.35 -0.159 0.509 -0.277 c 0.014 -0.011 0.032 -0.014 0.046 -0.025 c 0.027 -0.021 0.047 -0.05 0.073 -0.072 c 0.034 -0.03 0.072 -0.053 0.105 -0.086 c 0.029 -0.029 0.049 -0.063 0.076 -0.094 c 0.04 -0.045 0.078 -0.091 0.114 -0.139 c 0.052 -0.071 0.098 -0.144 0.14 -0.22 c 0.026 -0.047 0.052 -0.092 0.074 -0.141 c 0.04 -0.089 0.07 -0.179 0.096 -0.272 c 0.012 -0.043 0.029 -0.084 0.038 -0.128 c 0.03 -0.139 0.048 -0.279 0.048 -0.421 v -7.15 C 30.051 53.694 29.156 52.799 28.051 52.799 z"
            style="stroke: none; stroke-width: 1; stroke-dasharray: none; stroke-linecap: butt; stroke-linejoin: miter; stroke-miterlimit: 10; fill: rgb(255,255,255); fill-rule: nonzero; opacity: 1;"
            transform=" matrix(1 0 0 1 0 0) " stroke-linecap="round" />
        <path
            d="M 67.095 31.362 l 1.295 0.315 c 1.066 0.259 2.154 -0.396 2.416 -1.47 c 0.261 -1.073 -0.397 -2.155 -1.471 -2.417 l -6.913 -1.683 c -0.013 -0.003 -0.027 -0.002 -0.04 -0.005 c -0.111 -0.025 -0.224 -0.037 -0.337 -0.042 c -0.028 -0.001 -0.055 -0.008 -0.083 -0.008 c -0.14 -0.001 -0.28 0.014 -0.418 0.043 c -0.034 0.007 -0.066 0.021 -0.099 0.029 c -0.103 0.027 -0.203 0.058 -0.302 0.102 c -0.045 0.02 -0.087 0.046 -0.131 0.069 c -0.081 0.043 -0.159 0.09 -0.235 0.145 c -0.02 0.015 -0.043 0.023 -0.063 0.039 c -0.028 0.022 -0.047 0.05 -0.074 0.073 c -0.034 0.03 -0.072 0.053 -0.105 0.086 c -0.029 0.029 -0.05 0.064 -0.077 0.094 c -0.039 0.044 -0.077 0.089 -0.112 0.137 c -0.053 0.072 -0.099 0.147 -0.142 0.224 c -0.025 0.046 -0.051 0.09 -0.073 0.138 c -0.04 0.089 -0.07 0.181 -0.097 0.274 c -0.012 0.043 -0.028 0.083 -0.038 0.127 c -0.03 0.139 -0.048 0.279 -0.048 0.421 v 7.15 c 0 1.104 0.896 2 2 2 s 2 -0.896 2 -2 V 33.93 c 4.917 8.419 3.795 19.42 -3.414 26.63 c -6.265 6.263 -15.615 8.158 -23.822 4.829 c -1.026 -0.416 -2.19 0.077 -2.605 1.102 c -0.415 1.023 0.078 2.19 1.102 2.605 c 3.176 1.288 6.497 1.914 9.786 1.914 c 6.759 0 13.389 -2.644 18.368 -7.622 C 72.04 54.711 73.279 41.378 67.095 31.362 z"
            style="stroke: none; stroke-width: 1; stroke-dasharray: none; stroke-linecap: butt; stroke-linejoin: miter; stroke-miterlimit: 10; fill: rgb(255,255,255); fill-rule: nonzero; opacity: 1;"
            transform=" matrix(1 0 0 1 0 0) " stroke-linecap="round" />
    </g>
</svg>