<?xml version="1.0" encoding="utf-8"?>
<svg viewBox="0 0 500 500" xmlns="http://www.w3.org/2000/svg">
    <path
        d="M 280.26 430.845 C 283.498 430.845 286.12 433.463 286.12 436.703 C 286.12 439.95 283.498 442.563 280.26 442.563 L 175.205 442.563 C 169.598 442.563 164.478 440.26 160.788 436.57 C 157.098 432.878 154.795 427.758 154.795 422.152 L 154.795 390.34 C 154.795 384.715 157.08 379.615 160.788 375.925 C 164.478 372.235 169.598 369.93 175.205 369.93 L 292.758 369.93 C 295.998 369.93 298.618 372.545 298.618 375.793 C 298.618 379.03 295.998 381.65 292.758 381.65 L 175.205 381.65 C 172.818 381.65 170.655 382.625 169.07 384.205 C 167.49 385.793 166.513 387.955 166.513 390.34 L 166.513 422.152 C 166.513 424.54 167.49 426.703 169.07 428.29 C 170.655 429.868 172.818 430.845 175.205 430.845 L 280.26 430.845 Z M 420.725 406.625 C 416.348 406.625 412.58 407.505 409.36 409.245 C 406.133 411 403.75 413.485 402.208 416.703 C 400.665 419.93 399.885 423.323 399.885 426.94 C 399.885 430.553 400.665 433.968 402.208 437.175 C 403.75 440.392 406.153 442.872 409.36 444.633 C 412.6 446.372 416.368 447.247 420.725 447.247 C 427.21 447.247 432.303 445.392 436.033 441.703 C 439.748 437.993 441.603 433.067 441.603 426.94 C 441.603 420.783 439.748 415.863 436.033 412.173 C 432.325 408.465 427.21 406.625 420.725 406.625 Z M 424.73 417.565 C 426.133 419.553 426.84 422.738 426.84 427.073 C 426.84 431.408 426.133 434.593 424.73 436.55 C 423.81 437.818 422.463 438.443 420.725 438.443 C 418.965 438.443 417.64 437.818 416.758 436.55 C 415.355 434.593 414.648 431.43 414.648 427.073 C 414.648 422.738 415.355 419.573 416.758 417.622 C 417.64 416.335 418.965 415.688 420.725 415.688 C 422.463 415.688 423.81 416.315 424.73 417.565 Z M 409.885 364.91 L 365.163 447.368 L 376.173 447.368 L 420.9 364.91 L 409.885 364.91 Z M 380.295 370.42 C 376.585 366.727 371.488 364.91 365.04 364.91 C 360.648 364.91 356.858 365.77 353.655 367.505 C 350.43 369.225 348.053 371.705 346.485 374.953 C 344.928 378.17 344.163 381.57 344.163 385.145 C 344.163 388.76 344.948 392.198 346.485 395.398 C 348.053 398.64 350.43 401.1 353.655 402.838 C 356.858 404.58 360.648 405.435 365.04 405.435 C 371.488 405.435 376.585 403.6 380.295 399.93 C 384.025 396.24 385.86 391.313 385.86 385.145 C 385.86 379.01 384.005 374.11 380.295 370.435 L 380.295 370.42 Z M 369.005 375.845 C 370.41 377.823 371.095 380.965 371.095 385.24 C 371.095 389.56 370.39 392.705 369.005 394.652 C 368.125 395.943 366.8 396.61 365.04 396.61 C 363.288 396.61 361.935 395.965 361.015 394.652 C 359.61 392.72 358.91 389.58 358.91 385.24 C 358.91 380.925 359.61 377.78 361.015 375.845 C 361.935 374.58 363.288 373.955 365.04 373.955 C 366.78 373.955 368.108 374.58 369.005 375.845 Z M 437.538 241.845 C 438.338 245.185 437.618 248.35 435.408 251.125 L 422.068 267.917 C 420.158 270.343 417.928 271.085 414.943 271.085 L 370.803 271.085 C 367.815 271.085 365.585 270.323 363.658 267.9 L 350.338 251.108 C 348.145 248.332 347.425 245.185 348.208 241.832 C 350.823 230.795 372.93 224.99 394.528 225.112 C 414.925 225.225 434.863 230.597 437.518 241.832 L 437.538 241.845 Z M 365.393 277.998 L 420.368 277.998 C 423.67 277.998 426.385 280.713 426.385 284.015 C 426.385 287.315 423.688 290.03 420.368 290.03 L 365.393 290.03 C 362.09 290.03 359.375 287.335 359.375 284.015 C 359.375 280.713 362.09 277.998 365.393 277.998 Z M 421.815 302.453 C 425.35 312.178 462.945 358.445 471.893 370.32 C 485.838 388.835 494.275 422.273 488.705 447.428 C 481.83 478.475 437.44 494.1 393.005 494.16 C 348.518 494.22 303.985 478.675 297.055 447.428 C 291.488 422.267 299.928 388.835 313.873 370.32 C 322.798 358.463 360.41 312.178 363.95 302.453 C 365.18 299.073 368.248 296.923 371.84 296.923 L 413.91 296.923 C 417.503 296.923 420.57 299.073 421.798 302.453 L 421.815 302.453 Z M 319.863 488.285 C 323.108 488.285 325.723 490.902 325.723 494.14 C 325.723 497.387 323.108 500 319.863 500 L 30.673 500 C 24.855 500 19.583 497.62 15.755 493.81 C 11.923 489.98 9.56 484.713 9.56 478.893 L 9.56 21.135 C 9.56 15.35 11.945 10.082 15.755 6.23 L 15.795 6.192 C 19.62 2.385 24.898 0 30.673 0 L 351.6 0 C 357.423 0 362.695 2.385 366.525 6.192 C 370.35 10.022 372.718 15.295 372.718 21.112 L 372.718 212.768 C 372.718 216.007 370.095 218.625 366.858 218.625 C 363.613 218.625 360.995 216.007 360.995 212.768 L 360.995 21.112 C 360.995 18.537 359.943 16.19 358.22 14.475 C 356.52 12.775 354.18 11.7 351.58 11.7 L 30.653 11.7 C 28.06 11.7 25.715 12.755 24.013 14.435 L 23.995 14.452 C 22.295 16.138 21.26 18.495 21.26 21.093 L 21.26 478.85 C 21.26 481.425 22.315 483.773 24.035 485.49 C 25.735 487.19 28.08 488.268 30.673 488.268 L 319.863 488.268 L 319.863 488.285 Z M 310.98 340.13 C 314.22 340.13 316.838 342.742 316.838 345.982 C 316.838 349.225 314.22 351.843 310.98 351.843 L 279.145 351.843 C 273.523 351.843 268.42 349.535 264.73 345.847 C 261.04 342.155 258.735 337.038 258.735 331.432 L 258.735 299.617 C 258.735 293.995 261.04 288.898 264.73 285.203 C 268.42 281.513 273.54 279.21 279.145 279.21 L 310.98 279.21 C 316.603 279.21 321.698 281.513 325.39 285.203 C 329.083 288.893 331.388 294.013 331.388 299.617 L 331.388 330.573 C 331.388 333.815 328.768 336.432 325.53 336.432 C 322.283 336.432 319.668 333.815 319.668 330.573 L 319.668 299.617 C 319.668 297.232 318.693 295.07 317.108 293.485 C 315.53 291.905 313.36 290.928 310.98 290.928 L 279.14 290.928 C 276.76 290.928 274.59 291.905 273.008 293.485 C 271.425 295.07 270.448 297.232 270.448 299.617 L 270.448 331.432 C 270.448 333.815 271.425 335.982 273.008 337.568 C 274.59 339.148 276.76 340.13 279.14 340.13 L 310.98 340.13 Z M 175.225 188.473 L 207.038 188.473 C 212.663 188.473 217.763 190.773 221.453 194.465 C 225.14 198.158 227.448 203.273 227.448 208.882 L 227.448 240.695 C 227.448 246.323 225.14 251.418 221.453 255.11 C 217.763 258.798 212.643 261.108 207.038 261.108 L 175.225 261.108 C 169.598 261.108 164.5 258.798 160.81 255.11 C 157.12 251.418 154.813 246.303 154.813 240.695 L 154.813 208.882 C 154.813 203.257 157.098 198.158 160.81 194.465 C 164.5 190.773 169.618 188.473 175.225 188.473 Z M 207.038 200.188 L 175.225 200.188 C 172.838 200.188 170.673 201.168 169.09 202.747 C 167.508 204.325 166.528 206.495 166.528 208.882 L 166.528 240.695 C 166.528 243.075 167.508 245.245 169.09 246.83 C 170.673 248.413 172.838 249.388 175.225 249.388 L 207.038 249.388 C 209.425 249.388 211.588 248.413 213.17 246.83 C 214.753 245.245 215.728 243.078 215.728 240.695 L 215.728 208.882 C 215.728 206.495 214.753 204.325 213.17 202.747 C 211.588 201.168 209.425 200.188 207.038 200.188 Z M 62.943 49.667 L 319.318 49.667 C 324.925 49.667 330.023 51.972 333.735 55.668 L 333.75 55.647 C 337.443 59.338 339.748 64.452 339.748 70.058 L 339.748 151.01 C 339.748 156.632 337.463 161.733 333.75 165.425 L 333.383 165.778 C 329.71 169.273 324.748 171.418 319.338 171.418 L 62.963 171.418 C 57.358 171.418 52.258 169.115 48.548 165.425 L 48.53 165.443 C 44.84 161.752 42.533 156.632 42.533 151.03 L 42.533 70.077 C 42.533 64.452 44.818 59.357 48.53 55.668 C 52.223 51.972 57.338 49.667 62.943 49.667 Z M 319.318 61.388 L 62.943 61.388 C 60.563 61.388 58.393 62.362 56.813 63.95 C 55.228 65.525 54.255 67.695 54.255 70.077 L 54.255 151.03 C 54.255 153.415 55.228 155.585 56.813 157.165 L 56.813 157.183 C 58.373 158.743 60.543 159.723 62.943 159.723 L 319.318 159.723 C 321.6 159.723 323.675 158.845 325.22 157.42 L 325.453 157.165 C 327.033 155.585 328.008 153.415 328.008 151.03 L 328.008 70.077 C 328.008 67.695 327.033 65.525 325.453 63.95 L 325.453 63.928 C 323.888 62.362 321.723 61.388 319.318 61.388 Z M 279.145 188.473 L 310.96 188.473 C 316.583 188.473 321.68 190.78 325.373 194.465 C 329.063 198.162 331.365 203.278 331.365 208.882 L 331.365 240.695 C 331.365 246.323 329.063 251.423 325.373 255.11 C 321.68 258.805 316.563 261.108 310.96 261.108 L 279.145 261.108 C 273.523 261.108 268.42 258.798 264.73 255.11 C 261.04 251.423 258.735 246.308 258.735 240.695 L 258.735 208.882 C 258.735 203.257 261.02 198.162 264.73 194.465 C 268.42 190.78 273.54 188.473 279.145 188.473 Z M 310.96 200.193 L 279.145 200.193 C 276.76 200.193 274.595 201.168 273.008 202.753 C 271.43 204.332 270.455 206.503 270.455 208.882 L 270.455 240.703 C 270.455 243.078 271.43 245.247 273.008 246.83 C 274.595 248.415 276.76 249.393 279.145 249.393 L 310.96 249.393 C 313.343 249.393 315.508 248.415 317.095 246.83 C 318.673 245.247 319.653 243.078 319.653 240.703 L 319.653 208.882 C 319.653 206.503 318.673 204.332 317.095 202.753 C 315.508 201.168 313.343 200.193 310.96 200.193 Z M 71.28 188.473 L 103.098 188.473 C 108.72 188.473 113.815 190.78 117.505 194.465 C 121.203 198.162 123.508 203.278 123.508 208.882 L 123.508 240.695 C 123.508 246.323 121.215 251.423 117.505 255.11 C 113.815 258.798 108.7 261.108 103.098 261.108 L 71.28 261.108 C 65.653 261.108 60.56 258.798 56.865 255.11 C 53.175 251.423 50.87 246.308 50.87 240.695 L 50.87 208.882 C 50.87 203.257 53.155 198.162 56.865 194.465 C 60.56 190.78 65.675 188.473 71.28 188.473 Z M 103.098 200.193 L 71.28 200.193 C 68.898 200.193 66.728 201.168 65.148 202.753 C 63.56 204.332 62.59 206.503 62.59 208.882 L 62.59 240.703 C 62.59 243.078 63.56 245.247 65.148 246.83 C 66.728 248.415 68.898 249.393 71.28 249.393 L 103.098 249.393 C 105.478 249.393 107.648 248.415 109.228 246.83 C 110.81 245.247 111.785 243.078 111.785 240.703 L 111.785 208.882 C 111.785 206.503 110.81 204.332 109.228 202.753 C 107.648 201.168 105.478 200.193 103.098 200.193 Z M 71.28 369.91 L 103.098 369.91 C 108.72 369.91 113.815 372.218 117.505 375.905 L 117.86 376.278 C 121.358 379.95 123.508 384.908 123.508 390.32 L 123.508 422.133 C 123.508 427.758 121.215 432.857 117.505 436.55 C 113.815 440.235 108.7 442.543 103.098 442.543 L 71.28 442.543 C 65.653 442.543 60.56 440.235 56.865 436.55 C 53.175 432.857 50.87 427.74 50.87 422.133 L 50.87 390.32 C 50.87 384.695 53.155 379.595 56.865 375.905 C 60.56 372.218 65.675 369.91 71.28 369.91 Z M 103.098 381.628 L 71.28 381.628 C 68.898 381.628 66.728 382.605 65.148 384.185 C 63.56 385.77 62.59 387.935 62.59 390.32 L 62.59 422.133 C 62.59 424.518 63.56 426.683 65.148 428.268 C 66.728 429.848 68.898 430.83 71.28 430.83 L 103.098 430.83 C 105.478 430.83 107.648 429.848 109.228 428.268 C 110.81 426.69 111.785 424.518 111.785 422.133 L 111.785 390.32 C 111.785 388.035 110.908 385.965 109.483 384.42 L 109.228 384.185 C 107.648 382.605 105.478 381.628 103.098 381.628 Z M 71.28 279.195 L 103.098 279.195 C 108.72 279.195 113.815 281.5 117.505 285.188 C 121.203 288.88 123.508 294 123.508 299.605 L 123.508 331.415 C 123.508 337.04 121.215 342.143 117.505 345.833 C 113.815 349.523 108.7 351.825 103.098 351.825 L 71.28 351.825 C 65.653 351.825 60.56 349.523 56.865 345.833 C 53.175 342.143 50.87 337.023 50.87 331.415 L 50.87 299.605 C 50.87 293.977 53.155 288.88 56.865 285.188 C 60.56 281.5 65.675 279.195 71.28 279.195 Z M 103.098 290.915 L 71.28 290.915 C 68.898 290.915 66.728 291.888 65.148 293.468 C 63.56 295.055 62.59 297.22 62.59 299.605 L 62.59 331.415 C 62.59 333.803 63.56 335.965 65.148 337.553 C 66.728 339.13 68.898 340.108 71.28 340.108 L 103.098 340.108 C 105.478 340.108 107.648 339.13 109.228 337.553 C 110.81 335.965 111.785 333.803 111.785 331.415 L 111.785 299.605 C 111.785 297.22 110.81 295.055 109.228 293.468 C 107.648 291.888 105.478 290.915 103.098 290.915 Z M 175.205 279.195 L 207.018 279.195 C 212.643 279.195 217.738 281.5 221.433 285.188 C 225.12 288.88 227.428 294 227.428 299.605 L 227.428 331.415 C 227.428 337.04 225.12 342.143 221.433 345.833 C 217.738 349.523 212.623 351.825 207.018 351.825 L 175.205 351.825 C 169.58 351.825 164.478 349.523 160.788 345.833 C 157.095 342.143 154.795 337.023 154.795 331.415 L 154.795 299.605 C 154.795 293.977 157.08 288.88 160.788 285.188 C 164.478 281.5 169.593 279.195 175.205 279.195 Z M 207.018 290.915 L 175.205 290.915 C 172.818 290.915 170.648 291.888 169.07 293.468 C 167.485 295.055 166.508 297.22 166.508 299.605 L 166.508 331.415 C 166.508 333.803 167.485 335.965 169.07 337.553 C 170.648 339.13 172.818 340.108 175.205 340.108 L 207.018 340.108 C 209.395 340.108 211.565 339.13 213.148 337.553 C 214.733 335.965 215.71 333.803 215.71 331.415 L 215.71 299.605 C 215.71 297.22 214.733 295.055 213.148 293.468 C 211.565 291.888 209.395 290.915 207.018 290.915 Z"
        style="" transform="matrix(1, 0, 0, 1, 3.552713678800501e-15, 0)" />
    <text x="194.515" y="266.54" font-size="5.0" font-weight="bold"
        font-family="Arbeit Regular, Helvetica, Arial-Unicode, Arial, Sans-serif" fill="#000"
        style="white-space: pre; font-size: 9.1px;" transform="matrix(1, 0, 0, 1, 3.552713678800501e-15, 0)"> </text>
    <text x="194.515" y="275.666" font-size="5.0" font-weight="bold"
        font-family="Arbeit Regular, Helvetica, Arial-Unicode, Arial, Sans-serif" fill="#000"
        style="white-space: pre; font-size: 9.1px;" transform="matrix(1, 0, 0, 1, 3.552713678800501e-15, 0)"> </text>
</svg>