<svg class="svg-icon" style="width: 1em; height: 1em;vertical-align: middle;fill: currentColor;overflow: hidden;"
    viewBox="0 0 1024 1024" version="1.1" xmlns="http://www.w3.org/2000/svg">
    <path
        d="M918.170598 87.847097C880.429173 36.781557 819.007255 4.996072 749.521279 0.657036c-60.480429-3.581751-128.124361 7.511444-201.642365 32.522302-4.011561 1.391766-8.023123 2.885868-12.055151 4.37997-11.13413 4.134364-21.633778 8.04359-28.101397 8.309664-8.493867-0.266073-18.952581-4.175299-30.066244-8.268729-4.072963-1.535036-8.145926-3.029138-12.177955-4.420905C392.021565 8.168481 324.029692-2.842846 263.753934 0.657036c-69.38364 4.339036-130.785091 36.12452-168.506049 87.190061-55.506912 75.073507-38.682914 164.76056-21.163033 225.670799 7.879853 27.466916 18.850245 52.027496 29.452229 75.769391 14.51121 32.501835 28.203733 63.182093 32.194828 97.689708 2.742598 24.089836-2.619795 50.083117-8.289196 77.5705-4.154832 20.262479-8.493867 41.220841-9.8447 62.91602C109.984234 749.672869 139.579733 874.420151 200.919782 978.659347a90.039088 90.039088 0 0 0 90.444338 44.495585c36.963673-4.95305 66.088428-30.721193 75.994529-67.275523l3.561284-13.262714c13.426451-49.714708 27.282711-101.107723 47.504256-147.977496 16.128114-37.475352 36.022185-79.801419 67.684866-108.127956 5.034919-4.564175 11.932349-10.172174 18.113428-9.33302a33.340988 33.340988 0 0 0 4.95305 0c5.955941-0.900555 13.058042 4.830247 18.113428 9.33302 31.662682 28.285602 51.536284 70.652603 67.684866 108.148423 20.18061 46.726504 34.016404 97.996716 47.40192 147.568153l3.66362 13.65159c9.906101 36.55433 38.989921 62.322473 75.974062 67.275523a95.09038 95.09038 0 0 0 12.444028 0.839153c32.010623 0 61.135378-16.66026 78.00031-45.334738 61.360517-104.280131 90.935549-228.986478 83.321769-351.236766-1.350832-21.654245-5.669401-42.612607-9.8447-62.875086-5.669401-27.528317-11.031794-53.480664-8.268728-77.5705 3.970627-34.507615 17.683618-65.187874 32.194827-97.689708 10.601984-23.741894 21.572376-48.302475 29.431762-75.769391 17.519881-60.930706 34.364345-150.617759-21.122099-225.670799z m-40.565892 208.048583c-6.672291 23.189281-16.250917 44.638855-26.402624 67.357391-15.862041 35.469571-32.215295 72.167172-37.291148 116.437619-3.95016 34.241542 2.722131 66.518239 9.148816 97.751109 3.888759 18.932114 7.593313 36.799936 8.657605 53.951409 6.733692 108.066554-20.487617 222.825865-74.62323 314.887107a25.776329 25.776329 0 0 1-26.545894 13.426451 26.711678 26.711678 0 0 1-22.513865-20.528552l-3.66362-13.549253c-13.979064-51.78189-28.428872-105.303488-50.410591-156.246226-18.870713-43.7383-42.44887-93.51441-83.792514-130.478083-19.116318-17.131005-39.296929-25.747675-60.11202-25.747675-1.105226 0-2.230919 0.020467-3.356613 0.061401-22.5548-0.982423-43.349424 7.654714-63.4891 25.686274-41.364111 36.984141-64.942268 86.739783-83.792514 130.478083-22.002187 51.06554-36.492929 104.709941-50.492459 156.614634l-3.581752 13.180845a26.709631 26.709631 0 0 1-22.534332 20.528552c-5.075853 0.798219-18.092961 0.798219-26.484493-13.426451-54.176547-92.020308-81.37739-206.800087-74.643697-314.846173 1.064292-17.192406 4.768846-35.060228 8.657605-53.971875 6.447152-31.253339 13.098976-63.530035 9.148816-97.812512-5.075853-44.229512-21.449574-80.927112-37.311615-116.396684-10.151707-22.718537-19.709866-44.16811-26.382157-67.357391-22.165924-77.222558-18.74791-129.679864 11.154597-170.122954 26.423091-35.776579 70.468399-58.085773 120.653851-61.237713 51.761423-3.029138 111.545969 6.876963 177.122719 29.206623l10.520115 3.827357c14.736348 5.464729 31.45801 11.645809 52.477774 12.239356 18.993515-0.593547 35.735644-6.815561 50.512927-12.28029l10.438246-3.786423c65.57675-22.329661 125.033821-31.990156 176.979449-29.206623 50.34919 3.151941 94.37403 25.461135 120.817588 61.278648 29.882039 40.402155 33.300054 92.838994 11.13413 170.082019zM281.990165 256.005204h64.20545V192.004425h-64.20545v64.000779z m128.410901 0h64.20545V192.004425h-64.20545v64.000779z m0 128.001558h64.20545v-64.000779h-64.20545v64.000779z m-128.410901 0h64.20545v-64.000779h-64.20545v64.000779z" />
</svg>